<svg xmlns="http://www.w3.org/2000/svg" viewBox="0 0 1200 800" role="img" aria-labelledby="title desc">
  <title id="title">Maine Disc Golf placeholder image</title>
  <desc id="desc">Stylized landscape placeholder used when no verified course photo is available.</desc>
  <defs>
    <linearGradient id="sky" x1="0" y1="0" x2="0" y2="1">
      <stop offset="0%" stop-color="#10231a" />
      <stop offset="100%" stop-color="#1f4a33" />
    </linearGradient>
    <linearGradient id="ground" x1="0" y1="0" x2="1" y2="1">
      <stop offset="0%" stop-color="#173626" />
      <stop offset="100%" stop-color="#0d1d15" />
    </linearGradient>
  </defs>
  <rect width="1200" height="800" fill="url(#sky)" />
  <circle cx="940" cy="170" r="84" fill="#4ade80" opacity="0.18" />
  <path d="M0 520C120 460 240 420 360 438C480 456 620 532 760 520C900 508 1030 406 1200 430V800H0Z" fill="#28563e" />
  <path d="M0 590C180 520 310 510 430 546C550 582 686 646 834 624C980 602 1082 536 1200 560V800H0Z" fill="url(#ground)" />
  <g fill="#4ade80" opacity="0.8">
    <path d="M190 520l48-116 48 116h-34l22 70h-72l22-70z" />
    <path d="M332 540l56-136 56 136h-38l26 82h-88l26-82z" />
    <path d="M900 540l48-116 48 116h-34l22 70h-72l22-70z" />
    <path d="M1030 520l42-100 42 100h-30l18 58h-60l18-58z" />
  </g>
  <g fill="none" stroke="#e6f7ec" stroke-width="18" stroke-linecap="round" stroke-linejoin="round" opacity="0.92">
    <path d="M610 310c52 0 94 42 94 94 0 72-94 154-94 154s-94-82-94-154c0-52 42-94 94-94z" />
    <circle cx="610" cy="404" r="40" />
  </g>
  <text x="600" y="678" text-anchor="middle" fill="#e6f7ec" font-family="Georgia, serif" font-size="46" letter-spacing="5">MAINE DISC GOLF</text>
  <text x="600" y="724" text-anchor="middle" fill="#b9d8c3" font-family="Georgia, serif" font-size="24" letter-spacing="3">PHOTO NOT YET VERIFIED</text>
</svg>